# File created by Blade
# Date/Time:  Tue Sep 30 19:36:22 2014
#---------------------------------------------------------
:version 1.10
:name HOM
:units
  mass 1.0
  length 1.000000
  angle deg
:documentation
     Acclaim Skeleton File
:root
   axis xyz
   order TX TY TZ RX RY RZ
   position 0.000000 0.000000 0.000000
   orientation 0 0 0
:bonedata
   begin
      id 1
      name Spine_dum
      direction 0.000000 1.000000 0.000000
      length 3.241213
      axis 0.0 0.0 0.0 xyz
   end
   begin
      id 2
      name LeftUpLeg_dum
      direction 1.000000 0.000000 0.000000
      length 3.434019
      axis 0.0 0.0 0.0 xyz
   end
   begin
      id 3
      name RightUpLeg_dum
      direction -1.000000 0.000000 0.000000
      length 3.434019
      axis 0.0 0.0 0.0 xyz
   end
   begin
      id 4
      name Spine
      direction 0.000000 1.000000 0.000000
      length 0.000000
      axis 0.0 0.0 0.0 xyz
      dof rx ry rz
   end
   begin
      id 5
      name Spine_dum1
      direction 0.000000 1.000000 0.000000
      length 18.382958
      axis 0.0 0.0 0.0 xyz
   end
   begin
      id 6
      name Spine_dum2
      direction 0.000000 1.000000 0.000000
      length 12.828261
      axis 0.0 0.0 0.0 xyz
   end
   begin
      id 7
      name Spine_dum3
      direction 0.000000 1.000000 0.000000
      length 12.828261
      axis 0.0 0.0 0.0 xyz
   end
   begin
      id 8
      name Head
      direction 0.000000 1.000000 0.000000
      length 4.527550
      axis 0.0 0.0 0.0 xyz
      dof rx ry rz
   end
   begin
      id 9
      name LeftShoulder
      direction 1.000000 0.000000 0.000000
      length 7.748055
      axis 0.0 0.0 -90.0 xyz
      dof rx ry rz
   end
   begin
      id 10
      name LeftArm
      direction 1.000000 0.000000 0.000000
      length 10.635614
      axis 0.0 0.0 -90.0 xyz
      dof rx ry rz
   end
   begin
      id 11
      name LeftForeArm
      direction 1.000000 0.000000 0.000000
      length 8.346755
      axis 0.0 0.0 -90.0 xyz
      dof ry rz rx
   end
   begin
      id 12
      name LeftHand
      direction 0.000000 0.000000 0.000000
      length 0.000000
      axis 0.0 0.0 -90.0 xyz
      dof rx ry rz
   end
   begin
      id 13
      name LeftHand_dum1
      direction 0.000000 0.000000 0.000000
      length 0.000000
      axis 0.0 0.0 -90.0 xyz
   end
   begin
      id 14
      name LeftHand_dum2
      direction 1.000000 0.000000 0.000000
      length 3.937000
      axis 0.0 0.0 -90.0 xyz
   end
   begin
      id 15
      name LeftHandThumb1
      direction 0.000000 0.000000 1.000000
      length 3.937000
      axis 0.0 0.0 -90.0 xyz
      dof rx rz ry
   end
   begin
      id 16
      name RightShoulder
      direction -1.000000 0.000000 0.000000
      length 7.748055
      axis 0.0 0.0 90.0 xyz
      dof rx ry rz
   end
   begin
      id 17
      name RightArm
      direction -1.000000 0.000000 0.000000
      length 10.635614
      axis 0.0 0.0 90.0 xyz
      dof rx ry rz
   end
   begin
      id 18
      name RightForeArm
      direction -1.000000 0.000000 0.000000
      length 8.346755
      axis 0.0 0.0 90.0 xyz
      dof ry rz rx
   end
   begin
      id 19
      name RightHand
      direction 0.000000 0.000000 0.000000
      length 0.000000
      axis 0.0 0.0 90.0 xyz
      dof rx ry rz
   end
   begin
      id 20
      name RightHand_dum1
      direction 0.000000 0.000000 0.000000
      length 0.000000
      axis 0.0 0.0 90.0 xyz
   end
   begin
      id 21
      name RightHand_dum2
      direction -1.000000 0.000000 0.000000
      length 3.937000
      axis 0.0 0.0 90.0 xyz
   end
   begin
      id 22
      name RightHandThumb1
      direction 0.000000 0.000000 1.000000
      length 3.937000
      axis 0.0 0.0 90.0 xyz
      dof rx rz ry
   end
   begin
      id 23
      name LeftUpLeg
      direction 0.000000 -1.000000 0.000000
      length 15.713025
      axis 0.0 0.0 0.0 xyz
      dof rx ry rz
   end
   begin
      id 24
      name LeftLeg
      direction 0.000000 -1.000000 0.000000
      length 14.435119
      axis 0.0 0.0 0.0 xyz
      dof rx ry rz
   end
   begin
      id 25
      name LeftFoot
      direction 0.000000 -0.258819 0.965926
      length 4.938895
      axis 15.0 0.0 0.0 xyz
      dof rx ry rz
   end
   begin
      id 26
      name LeftToeBase
      direction 0.000000 0.000000 1.000000
      length 2.952750
      axis 0.0 0.0 0.0 xyz
      dof rx ry rz
   end
   begin
      id 27
      name RightUpLeg
      direction 0.000000 -1.000000 0.000000
      length 15.713025
      axis 0.0 0.0 0.0 xyz
      dof rx ry rz
   end
   begin
      id 28
      name RightLeg
      direction 0.000000 -1.000000 0.000000
      length 14.435119
      axis 0.0 0.0 0.0 xyz
      dof rx ry rz
   end
   begin
      id 29
      name RightFoot
      direction 0.000000 -0.258819 0.965926
      length 4.938895
      axis 15.0 0.0 0.0 xyz
      dof rx ry rz
   end
   begin
      id 30
      name RightToeBase
      direction 0.000000 0.000000 1.000000
      length 2.952750
      axis 0.0 0.0 0.0 xyz
      dof rx ry rz
   end
:hierarchy
   begin
      root Spine_dum LeftUpLeg_dum RightUpLeg_dum
      Spine_dum Spine
      LeftUpLeg_dum LeftUpLeg
      RightUpLeg_dum RightUpLeg
      Spine Spine_dum1 Spine_dum2 Spine_dum3
      Spine_dum1 Head
      Spine_dum2 LeftShoulder
      Spine_dum3 RightShoulder
      LeftShoulder LeftArm
      LeftArm LeftForeArm
      LeftForeArm LeftHand
      LeftHand LeftHand_dum1 LeftHand_dum2
      LeftHand_dum1 LeftHandThumb1
      RightShoulder RightArm
      RightArm RightForeArm
      RightForeArm RightHand
      RightHand RightHand_dum1 RightHand_dum2
      RightHand_dum1 RightHandThumb1
      LeftUpLeg LeftLeg
      LeftLeg LeftFoot
      LeftFoot LeftToeBase
      RightUpLeg RightLeg
      RightLeg RightFoot
      RightFoot RightToeBase
   end

# File created by Blade
# Date/Time:  Tue Sep 23 19:18:47 2014
# Frame Rate: 120.000 fps
#------------------------------------------------------
:FULLY-SPECIFIED
:DEGREES
911
root -3.575150 32.508237 2.802126 37.113094 15.383281 -3.708708
Spine -32.468797 -9.990138 5.452186
Head -1.473020 -11.393948 5.306838
LeftShoulder -12.489749 38.776512 22.422208
LeftArm 60.939401 -19.539183 -79.018376
LeftForeArm -6.089425 0.000000 82.169241
LeftHand -54.306392 -0.000000 5.243511
LeftHandThumb1 -26.253704 0.000000 33.147579
RightShoulder -17.014606 -46.267418 -15.902503
RightArm 47.333268 22.443763 77.414215
RightForeArm 21.794429 -0.000000 13.090346
RightHand 18.435565 -0.000000 -16.042084
RightHandThumb1 -24.326973 -0.000000 -32.862282
LeftUpLeg -41.023075 -2.726067 10.306410
LeftLeg 12.850312 -0.000000 -0.000000
LeftFoot -10.126344 5.271791 2.186610
LeftToeBase 2.504440 -0.000000 -0.000000
RightUpLeg -41.847140 -15.176035 3.561455
RightLeg 21.328796 -0.000000 -0.000000
RightFoot -5.266876 -14.891147 20.423670
RightToeBase 1.520408 -0.000000 -0.000000
912
root -3.479106 32.521210 2.767446 37.178350 15.392084 -3.848219
Spine -32.596569 -9.715748 5.391408
Head -1.426764 -11.732846 5.267886
LeftShoulder -12.375556 38.611345 22.352876
LeftArm 61.045195 -19.244336 -78.847364
LeftForeArm -5.906571 -0.000000 82.541685
LeftHand -54.310140 -0.000000 5.003676
LeftHandThumb1 -26.253704 0.000000 33.147579
RightShoulder -17.279370 -46.459259 -15.738443
RightArm 47.190408 22.861277 78.405556
RightForeArm 21.959701 0.000000 13.345062
RightHand 18.455270 -0.000000 -16.430103
RightHandThumb1 -24.326973 -0.000000 -32.862282
LeftUpLeg -41.214916 -2.955673 10.425302
LeftLeg 13.008166 -0.000000 -0.000000
LeftFoot -10.122578 5.809166 2.258765
LeftToeBase 2.309277 -0.000000 -0.000000
RightUpLeg -41.556006 -14.691519 3.128640
RightLeg 20.689834 -0.000000 -0.000000
RightFoot -4.771148 -15.175978 20.448908
RightToeBase 1.204111 -0.000000 -0.000000
913
root -3.383715 32.537140 2.732820 37.250404 15.389281 -4.063084
Spine -32.744368 -9.473285 5.418981
Head -1.394962 -11.978596 5.318470
LeftShoulder -12.367340 38.489645 22.263529
LeftArm 61.180239 -18.887111 -78.755534
LeftForeArm -5.626926 -0.000000 82.924321
LeftHand -54.258731 -0.000000 4.644036
LeftHandThumb1 -26.253704 0.000000 33.147579
RightShoulder -17.477243 -46.630250 -15.562245
RightArm 47.055023 23.200528 79.197039
RightForeArm 22.237824 -0.000000 13.432139
RightHand 18.677608 0.000000 -16.471144
RightHandThumb1 -24.326973 -0.000000 -32.862282
LeftUpLeg -41.423256 -2.926610 10.476870
LeftLeg 13.172585 -0.000000 -0.000000
LeftFoot -10.176071 6.050262 2.172984
LeftToeBase 2.312100 -0.000000 -0.000000
RightUpLeg -41.226103 -14.143544 2.711724
RightLeg 19.956762 -0.000000 -0.000000
RightFoot -4.207956 -15.320711 20.628296
RightToeBase 0.856861 -0.000000 -0.000000
914
root -3.293271 32.554885 2.703123 37.218594 15.382273 -4.369435
Spine -32.800260 -9.215067 5.500295
Head -1.379677 -12.214572 5.418407
LeftShoulder -12.353795 38.440674 22.185008
LeftArm 61.378917 -18.515314 -78.655069
LeftForeArm -5.351525 -0.000000 83.317504
LeftHand -54.232148 0.000000 4.585993
LeftHandThumb1 -26.253704 0.000000 33.147579
RightShoulder -17.736378 -46.781128 -15.352450
RightArm 46.959365 23.381994 79.890567
RightForeArm 22.393383 -0.000000 13.411843
RightHand 18.797206 -0.000000 -16.482927
RightHandThumb1 -24.326973 -0.000000 -32.862282
LeftUpLeg -41.547245 -2.718255 10.512094
LeftLeg 13.362905 -0.000000 -0.000000
LeftFoot -10.290813 6.116463 2.193238
LeftToeBase 2.482130 -0.000000 -0.000000
RightUpLeg -40.682625 -13.663775 2.378435
RightLeg 18.923597 -0.000000 -0.000000
RightFoot -3.489670 -15.221946 21.085607
RightToeBase 0.799753 -0.000000 -0.000000
915
root -3.197214 32.571679 2.678411 37.110041 15.430513 -4.663277
Spine -32.790358 -9.061611 5.620183
Head -1.350202 -12.443962 5.580049
LeftShoulder -12.280632 38.365499 22.189423
LeftArm 61.448404 -18.163259 -78.583474
LeftForeArm -5.086596 -0.000000 83.747603
LeftHand -54.137144 0.000000 4.361320
LeftHandThumb1 -26.253704 0.000000 33.147579
RightShoulder -17.888981 -46.922107 -15.171680
RightArm 46.772778 23.559151 80.503783
RightForeArm 22.653608 -0.000000 13.480608
RightHand 18.787952 -0.000000 -16.486869
RightHandThumb1 -24.326973 -0.000000 -32.862282
LeftUpLeg -41.592105 -2.565637 10.553048
LeftLeg 13.514019 -0.000000 -0.000000
LeftFoot -10.327028 6.025676 2.053607
LeftToeBase 2.415455 -0.000000 -0.000000
RightUpLeg -40.251211 -13.348328 2.136878
RightLeg 18.241536 -0.000000 -0.000000
RightFoot -2.761264 -15.116159 21.222423
RightToeBase 0.729789 -0.000000 -0.000000
916
root -3.100333 32.589515 2.653494 37.033985 15.443804 -4.969139
Spine -32.812420 -8.946846 5.761869
Head -1.326972 -12.584667 5.803842
LeftShoulder -12.279078 38.288442 22.180996
LeftArm 61.504792 -17.775475 -78.521667
LeftForeArm -4.835031 -0.000000 84.199048
LeftHand -54.109485 -0.000000 4.318412
LeftHandThumb1 -26.253704 0.000000 33.147579
RightShoulder -17.998144 -47.035272 -15.016045
RightArm 46.606723 23.594785 80.966933
RightForeArm 23.134481 -0.000000 13.387444
RightHand 18.799347 0.000000 -16.439555
RightHandThumb1 -24.326973 -0.000000 -32.862282
LeftUpLeg -41.649986 -2.328012 10.548121
LeftLeg 13.654227 -0.000000 -0.000000
LeftFoot -10.356142 5.923347 1.822802
LeftToeBase 2.183395 -0.000000 -0.000000
RightUpLeg -39.885330 -13.205483 1.998403
RightLeg 17.569124 -0.000000 -0.000000
RightFoot -1.982448 -14.761516 21.473567
RightToeBase 0.614164 -0.000000 -0.000000
917
root -3.013946 32.615362 2.624954 36.992313 15.473343 -5.438983
Spine -32.893183 -8.798213 6.057159
Head -1.332038 -12.655170 6.085282
LeftShoulder -12.225879 38.258567 22.224837
LeftArm 61.552495 -17.448113 -78.484246
LeftForeArm -4.568277 -0.000000 84.691364
LeftHand -54.157291 0.000000 4.319588
LeftHandThumb1 -26.253704 0.000000 33.147579
RightShoulder -18.056722 -47.084976 -14.875360
RightArm 46.364181 23.611096 81.428741
RightForeArm 23.773886 -0.000000 13.378196
RightHand 18.800158 -0.000000 -16.129634
RightHandThumb1 -24.326973 -0.000000 -32.862282
LeftUpLeg -41.780857 -2.002554 10.718460
LeftLeg 13.800609 -0.000000 -0.000000
LeftFoot -10.399750 5.689779 1.882019
LeftToeBase 2.160766 -0.000000 -0.000000
RightUpLeg -39.195706 -12.623372 1.759276
RightLeg 16.174799 -0.000000 -0.000000
RightFoot -1.035909 -14.680787 22.080361
RightToeBase 0.331811 -0.000000 -0.000000
